<?xml version="1.0" standalone="no"?>
<!DOCTYPE svg PUBLIC "-//W3C//DTD SVG 20010904//EN"
 "http://www.w3.org/TR/2001/REC-SVG-20010904/DTD/svg10.dtd">
<svg version="1.0" xmlns="http://www.w3.org/2000/svg"
 width="99.000000pt" height="99.000000pt" viewBox="0 0 99.000000 99.000000"
 preserveAspectRatio="xMidYMid meet">
<metadata>
Created by potrace 1.11, written by Peter Selinger 2001-2013
</metadata>
<g transform="translate(0.000000,99.000000) scale(0.100000,-0.100000)"
fill="#000000" stroke="none">
<path d="M607 913 c-2 -1 -70 -5 -152 -8 -83 -4 -152 -8 -154 -10 -1 -2 19
-40 45 -85 l48 -81 81 6 c44 3 125 7 179 10 54 3 100 6 102 7 1 2 -19 39 -46
82 -39 66 -52 80 -74 81 -15 0 -28 0 -29 -2z"/>
<path d="M186 720 l-88 -161 49 -74 c26 -41 51 -75 55 -75 5 0 44 66 155 269
l24 43 -52 79 c-28 44 -52 79 -53 79 -1 0 -41 -72 -90 -160z"/>
<path d="M737 706 l-16 -34 -156 0 c-86 0 -160 -4 -165 -8 -4 -5 -23 -38 -42
-74 -88 -164 -116 -208 -133 -212 -20 -4 81 -158 104 -158 10 0 30 -22 46 -50
l30 -51 17 23 c10 13 25 38 33 56 9 17 20 32 26 32 9 0 -32 -81 -53 -104 -4
-6 -8 -12 -8 -15 0 -4 72 -6 161 -6 l160 0 39 70 39 71 -73 -1 c-46 -1 -73 3
-73 9 0 6 -21 44 -48 84 l-48 72 -76 -6 c-42 -3 -80 -7 -85 -8 -7 -1 -83 110
-85 125 -1 3 68 6 153 6 140 1 154 -1 147 -16 -4 -9 -15 -33 -24 -54 l-17 -37
51 -76 c55 -82 52 -82 90 -10 l21 39 38 -57 37 -57 22 35 c11 20 30 51 41 69
l19 33 -40 63 c-38 60 -39 64 -24 87 8 13 15 30 15 38 0 16 -89 156 -99 156
-4 0 -15 -15 -24 -34z"/>
</g>
</svg>
